<mxfile host="app.diagrams.net" modified="2021-11-17T06:33:11.115Z" agent="5.0 (Windows)" etag="UhI4Oit3BvJgsfw6kilX" version="15.7.4" type="github">
  <diagram id="hNY8Ot3O8GoAVUrFT_j4" name="Page-1">
    <mxGraphModel dx="2370" dy="1287" grid="1" gridSize="10" guides="1" tooltips="1" connect="1" arrows="1" fold="1" page="1" pageScale="1" pageWidth="850" pageHeight="1100" math="0" shadow="0">
      <root>
        <mxCell id="0" />
        <mxCell id="1" parent="0" />
        <mxCell id="wGsqCp_JyI2TRbFPw97d-1" value="frame" style="shape=umlFrame;whiteSpace=wrap;html=1;" vertex="1" parent="1">
          <mxGeometry width="300" height="200" as="geometry" />
        </mxCell>
        <mxCell id="wGsqCp_JyI2TRbFPw97d-2" value="frame" style="shape=umlFrame;whiteSpace=wrap;html=1;" vertex="1" parent="1">
          <mxGeometry y="200" width="300" height="200" as="geometry" />
        </mxCell>
        <mxCell id="wGsqCp_JyI2TRbFPw97d-3" value="frame" style="shape=umlFrame;whiteSpace=wrap;html=1;" vertex="1" parent="1">
          <mxGeometry x="300" width="300" height="200" as="geometry" />
        </mxCell>
        <mxCell id="wGsqCp_JyI2TRbFPw97d-4" value="frame" style="shape=umlFrame;whiteSpace=wrap;html=1;" vertex="1" parent="1">
          <mxGeometry x="300" y="200" width="300" height="200" as="geometry" />
        </mxCell>
        <mxCell id="wGsqCp_JyI2TRbFPw97d-5" value="frame" style="shape=umlFrame;whiteSpace=wrap;html=1;" vertex="1" parent="1">
          <mxGeometry y="400" width="300" height="200" as="geometry" />
        </mxCell>
        <mxCell id="wGsqCp_JyI2TRbFPw97d-6" value="frame" style="shape=umlFrame;whiteSpace=wrap;html=1;" vertex="1" parent="1">
          <mxGeometry x="300" y="400" width="300" height="200" as="geometry" />
        </mxCell>
        <mxCell id="wGsqCp_JyI2TRbFPw97d-7" value="frame" style="shape=umlFrame;whiteSpace=wrap;html=1;" vertex="1" parent="1">
          <mxGeometry y="600" width="300" height="200" as="geometry" />
        </mxCell>
        <mxCell id="wGsqCp_JyI2TRbFPw97d-8" value="frame" style="shape=umlFrame;whiteSpace=wrap;html=1;" vertex="1" parent="1">
          <mxGeometry x="300" y="600" width="300" height="200" as="geometry" />
        </mxCell>
        <mxCell id="wGsqCp_JyI2TRbFPw97d-9" value="frame" style="shape=umlFrame;whiteSpace=wrap;html=1;" vertex="1" parent="1">
          <mxGeometry y="800" width="300" height="200" as="geometry" />
        </mxCell>
        <mxCell id="wGsqCp_JyI2TRbFPw97d-10" value="frame" style="shape=umlFrame;whiteSpace=wrap;html=1;" vertex="1" parent="1">
          <mxGeometry x="300" y="800" width="300" height="200" as="geometry" />
        </mxCell>
        <mxCell id="wGsqCp_JyI2TRbFPw97d-11" value="frame" style="shape=umlFrame;whiteSpace=wrap;html=1;" vertex="1" parent="1">
          <mxGeometry x="600" y="200" width="300" height="200" as="geometry" />
        </mxCell>
        <mxCell id="wGsqCp_JyI2TRbFPw97d-12" value="frame" style="shape=umlFrame;whiteSpace=wrap;html=1;" vertex="1" parent="1">
          <mxGeometry x="600" width="300" height="200" as="geometry" />
        </mxCell>
        <mxCell id="wGsqCp_JyI2TRbFPw97d-13" value="frame" style="shape=umlFrame;whiteSpace=wrap;html=1;" vertex="1" parent="1">
          <mxGeometry x="600" y="400" width="300" height="200" as="geometry" />
        </mxCell>
        <mxCell id="wGsqCp_JyI2TRbFPw97d-14" value="frame" style="shape=umlFrame;whiteSpace=wrap;html=1;" vertex="1" parent="1">
          <mxGeometry x="600" y="600" width="300" height="200" as="geometry" />
        </mxCell>
        <mxCell id="wGsqCp_JyI2TRbFPw97d-15" value="frame" style="shape=umlFrame;whiteSpace=wrap;html=1;" vertex="1" parent="1">
          <mxGeometry x="600" y="800" width="300" height="200" as="geometry" />
        </mxCell>
      </root>
    </mxGraphModel>
  </diagram>
</mxfile>
